<svg xmlns="http://www.w3.org/2000/svg" viewBox="0 0 697.65 300.13"><defs><style>.cls-1{fill:#a69d8a;}.cls-2{fill:#1e3545;}</style></defs><g id="Layer_2" data-name="Layer 2"><g id="Layer_1-2" data-name="Layer 1"><path class="cls-1" d="M390.08,267l-.15,1c-.06.32-.2.5-.48.5H383a5.74,5.74,0,0,0-.1.82c0,1.07.55,1.78,2,1.78s2.82-.14,3.68-.22h.08c.15,0,.29,0,.29.22v.08l-.24,1.31c0,.32-.11.46-.49.52a19.2,19.2,0,0,1-4,.34,3.71,3.71,0,0,1-3.92-4,6.44,6.44,0,0,1,.1-1.19l.22-1.23c.66-3.71,2.62-5.08,5.66-5.08,2.64,0,3.89,1.75,3.89,4.07A7.4,7.4,0,0,1,390.08,267Zm-4.19-2.94c-1.58,0-2.32,1.07-2.58,2.52h4.21a4.65,4.65,0,0,0,.08-.75A1.57,1.57,0,0,0,385.89,264.09Z"/><path class="cls-1" d="M402.92,262.36l-4.27,5.15,2.6,5.26a.25.25,0,0,1,0,.12.27.27,0,0,1-.28.28h-2.07c-.21,0-.29-.06-.45-.4l-1.73-3.49L394,272.77c-.28.34-.4.4-.62.4h-2.16a.18.18,0,0,1-.2-.18.42.42,0,0,1,.1-.22l4.65-5.56-2.41-4.85a.2.2,0,0,1,0-.11.29.29,0,0,1,.3-.28h2.07c.22,0,.3.1.43.39l1.51,3.06,2.41-3.06c.27-.35.37-.39.59-.39h2.19a.17.17,0,0,1,.19.18A.3.3,0,0,1,402.92,262.36Z"/><path class="cls-1" d="M414.1,266.81l-.26,1.53c-.58,3.46-2.42,5-5.62,5a14.48,14.48,0,0,1-1.89-.14l-.61,3.51a.51.51,0,0,1-.48.4h-1.83a.3.3,0,0,1-.31-.32v-.08l2.42-13.82c.06-.3.16-.42.64-.54a18.54,18.54,0,0,1,4.09-.51c2.66,0,3.95,1.57,3.95,3.83A7.78,7.78,0,0,1,414.1,266.81ZM409.87,264a12.24,12.24,0,0,0-1.95.14L406.71,271a15.89,15.89,0,0,0,1.89.14c1.71,0,2.36-1.31,2.62-2.84l.26-1.53a6.54,6.54,0,0,0,.12-1.17C411.6,264.57,411.16,264,409.87,264Z"/><path class="cls-1" d="M425.8,267l-.16,1c-.06.32-.2.5-.48.5h-6.47a5.74,5.74,0,0,0-.1.82c0,1.07.55,1.78,2,1.78s2.82-.14,3.68-.22h.08c.16,0,.3,0,.3.22v.08l-.24,1.31c-.06.32-.12.46-.5.52a19.14,19.14,0,0,1-4,.34,3.7,3.7,0,0,1-3.91-4,6.44,6.44,0,0,1,.1-1.19l.21-1.23c.66-3.71,2.63-5.08,5.66-5.08,2.65,0,3.9,1.75,3.9,4.07A7.4,7.4,0,0,1,425.8,267Zm-4.19-2.94c-1.59,0-2.33,1.07-2.58,2.52h4.21a4.65,4.65,0,0,0,.07-.75A1.56,1.56,0,0,0,421.61,264.09Z"/><path class="cls-1" d="M436.44,262.6l-.23,1.29a.39.39,0,0,1-.4.3h-.06a18,18,0,0,0-2.54-.14c-.94,0-2,.54-2.37,2.6l-.33,1.85a4.79,4.79,0,0,0-.1,1c0,1.35.73,1.61,1.55,1.61a19.93,19.93,0,0,0,2.6-.14h.06c.16,0,.29.08.29.24v.06l-.23,1.29c-.06.32-.14.44-.5.52a11.39,11.39,0,0,1-2.6.26,3.61,3.61,0,0,1-3.79-3.82,7.55,7.55,0,0,1,.09-1l.34-1.85c.7-3.75,2.8-4.82,5.38-4.82a10.19,10.19,0,0,1,2.51.26c.25.06.35.14.35.33A.62.62,0,0,1,436.44,262.6Z"/><path class="cls-1" d="M445.16,262.36l-.2,1.18a.5.5,0,0,1-.47.39H442.7l-1.09,6.24a4,4,0,0,0-.1.69c0,.36.18.42.67.42h1.06c.18,0,.35,0,.35.24v.06l-.21,1.25a.46.46,0,0,1-.44.36,8.6,8.6,0,0,1-1.37.14c-1.75,0-2.7-.6-2.7-2.19a5.92,5.92,0,0,1,.1-1l1.09-6.24-1.83-.27a.33.33,0,0,1-.31-.34v-.06l.15-.9a.49.49,0,0,1,.46-.39h1.87l.3-1.63a.51.51,0,0,1,.45-.4l1.91-.32h.08c.16,0,.28.08.28.24v.06L443,262h1.79a.32.32,0,0,1,.33.34Z"/><path class="cls-1" d="M466.75,266l-1.19,6.75a.53.53,0,0,1-.48.42h-1.82a.32.32,0,0,1-.32-.34v-.08l1.19-6.75a6.36,6.36,0,0,0,.1-.91c0-.78-.34-1-1.19-1a5.23,5.23,0,0,0-2,.5,12.3,12.3,0,0,1-.1,1.43l-1.19,6.75a.53.53,0,0,1-.47.42h-1.83a.32.32,0,0,1-.32-.34v-.08l1.19-6.75a4.88,4.88,0,0,0,.1-1c0-.74-.32-1-1.13-1a5.17,5.17,0,0,0-1.95.66l-1.41,8a.53.53,0,0,1-.47.42h-1.83a.32.32,0,0,1-.32-.34v-.08l1.83-10.39a.49.49,0,0,1,.46-.39h1.72a.33.33,0,0,1,.34.34v.05l-.08.42a5.55,5.55,0,0,1,2.94-.95,2.4,2.4,0,0,1,2.13,1,6.18,6.18,0,0,1,3.49-1c1.89,0,2.74,1.11,2.74,2.9A7.33,7.33,0,0,1,466.75,266Z"/><path class="cls-1" d="M478.75,266.77l-.3,1.61c-.61,3.28-2.48,4.95-5.6,4.95a3.75,3.75,0,0,1-4-4,5.15,5.15,0,0,1,.08-.95l.3-1.61c.59-3.25,2.5-4.94,5.62-4.94a3.68,3.68,0,0,1,4,3.91A5.89,5.89,0,0,1,478.75,266.77Zm-4.27-2.68c-1.21,0-2.24.72-2.6,2.68l-.3,1.61a4.79,4.79,0,0,0-.08.88,1.58,1.58,0,0,0,1.75,1.8c1.39,0,2.24-.83,2.58-2.68l.3-1.61a4.61,4.61,0,0,0,.08-.87C476.21,264.73,475.65,264.09,474.48,264.09Z"/><path class="cls-1" d="M488,262.23l-.26,1.43a.49.49,0,0,1-.46.39,5.8,5.8,0,0,0-2.86.72l-1.41,8a.53.53,0,0,1-.47.42h-1.83a.32.32,0,0,1-.32-.34v-.08l1.83-10.39a.49.49,0,0,1,.45-.39h1.73a.33.33,0,0,1,.34.34v.05l-.08.42a4.57,4.57,0,0,1,3-.95.3.3,0,0,1,.32.32Z"/><path class="cls-1" d="M498.33,267l-.15,1c-.06.32-.2.5-.48.5h-6.48a7.61,7.61,0,0,0-.09.82c0,1.07.55,1.78,2,1.78s2.82-.14,3.67-.22h.08c.16,0,.3,0,.3.22v.08l-.24,1.31c-.06.32-.12.46-.49.52a19.2,19.2,0,0,1-4,.34,3.71,3.71,0,0,1-3.92-4,6.44,6.44,0,0,1,.1-1.19l.22-1.23c.66-3.71,2.62-5.08,5.66-5.08,2.64,0,3.89,1.75,3.89,4.07A7.4,7.4,0,0,1,498.33,267Zm-4.19-2.94c-1.58,0-2.32,1.07-2.58,2.52h4.21a4.65,4.65,0,0,0,.08-.75A1.57,1.57,0,0,0,494.14,264.09Z"/><path class="cls-2" d="M133.16,168.67A39.89,39.89,0,1,0,173,208.56,39.91,39.91,0,0,0,133.16,168.67Zm0,60.44a20.55,20.55,0,1,1,20.55-20.55A20.54,20.54,0,0,1,133.16,229.11Z"/><path class="cls-2" d="M194.08,168.67A39.89,39.89,0,1,0,234,208.56,39.91,39.91,0,0,0,194.08,168.67Zm0,60.44a20.55,20.55,0,1,1,20.55-20.55A20.55,20.55,0,0,1,194.08,229.11Z"/><rect class="cls-2" x="73.71" y="168.8" width="19.56" height="79.63"/><rect class="cls-2" x="233.95" y="168.8" width="17.93" height="79.63"/><polygon class="cls-2" points="278.53 168.67 300.67 168.67 258.42 223.41 247.4 208.79 278.53 168.67"/><polygon class="cls-2" points="299.23 248.44 277.16 248.44 247.4 208.79 258.57 194.33 299.23 248.44"/><path class="cls-1" d="M236.59,66.15a33,33,0,0,0,32.86-33.1,33.11,33.11,0,1,0-66.22.53A32.92,32.92,0,0,0,236.59,66.15Z"/><path class="cls-1" d="M588.64,6.22C531.37-9.37,480.17,4.47,438.54,46.56Q422.17,63.12,406.12,80q-6.4,6.7-12.75,13.47-17.5,20.07-34.81,40.33c-22,25.68-43.72,51.59-67,76-9.88,10.38-20,20.5-30.63,30.22-19.42,17.84-40,34.23-65.45,42.69-33.75,11.23-67.64,11.4-97.58-9.34-40.51-28.05-57.73-67.94-48.7-116.94,9.39-50.88,50.21-82.91,88.37-87.22,8.47-1,16.94-2,25.32-3.59,15-2.79,25.92-18,25.2-34.69C187.37,15.16,175,1.16,158.47.24a150.37,150.37,0,0,0-37.11,2.45C38.88,19,3.36,84.31.25,140.57c-4,71.92,40.38,134.72,108.77,153.34,57.26,15.59,108.46,1.74,150.09-40.34q16.36-16.57,32.42-33.45,6.41-6.72,12.75-13.47,17.52-20.07,34.82-40.33c22-25.69,43.71-51.59,67-76C416,79.9,426.17,69.78,436.76,60.06c19.42-17.85,40-34.24,65.45-42.69C536,6.14,569.85,6,599.79,26.7c40.51,28.05,57.72,68,48.69,116.94-9.39,50.89-50.2,82.92-88.36,87.22-8.47,1-16.94,2-25.32,3.6-15,2.78-25.92,18-25.2,34.68.68,15.83,13.09,29.82,29.58,30.74a150,150,0,0,0,37.12-2.44c82.48-16.31,118-81.63,121.11-137.88C701.37,87.64,657,24.84,588.64,6.22Z"/><rect class="cls-2" x="322.5" y="168.67" width="19.51" height="79.77"/><rect class="cls-2" x="346.81" y="173.96" width="19.51" height="74.48"/><rect class="cls-2" x="440.93" y="168.94" width="19.93" height="79.5"/><rect class="cls-2" x="468.73" y="159.24" width="19.93" height="39.42" transform="translate(299.75 657.63) rotate(-90)"/><rect class="cls-2" x="468.73" y="218.77" width="19.93" height="39.42" transform="translate(240.21 717.16) rotate(-90)"/><rect class="cls-2" x="468.73" y="189" width="19.93" height="39.42" transform="translate(269.98 687.4) rotate(-90)"/><rect class="cls-2" x="418.23" y="168.98" width="17.89" height="79.46" transform="translate(854.35 417.42) rotate(-180)"/><polygon class="cls-2" points="395.61 173.96 373.5 173.96 411.7 223.47 422.7 208.88 395.61 173.96"/><polygon class="cls-2" points="370.98 248.44 393 248.44 422.7 208.88 411.56 194.44 370.98 248.44"/></g></g></svg>